# xmcd
#
# Track frame offsets:
#	150
#	12020
#	22860
#	36780
#	45280
#	58527
#	71267
#	82807
#	98702
#	114342
#	125152
#	138700
#	152312
#	165382
#	176805
#	200302
#	210602
#	222592
#
# Disc length: 3503
#
# Revision: 2
# Processed by: cddbd v1.5.1PL0 Copyright (c) Steve Scherf et al.
# Submitted via: dBpowerAMP V4.0
# Normalized: r0:TSWAP
#
DISCID=e30dad12
DTITLE=Various Artist - The Soul Box - CD2
DYEAR=1900
DGENRE=Soul
TTITLE0=Martha and The Vandellas - Dancing In The Street
TTITLE1=Aretha Franklin - Respect
TTITLE2=Aaron Neville - Tell It Like It Is
TTITLE3=Sam Cooke - Only Sixteen
TTITLE4=Ben E King - Stand By Me
TTITLE5=Jackie Wilson - I Get The Sweetest Feeling
TTITLE6=Sam and Dave - Soul Sister, Brown Sugar
TTITLE7=Fontella Bass - The Soul Of A Man
TTITLE8=Al Wilson - Show And Tell
TTITLE9=Wilson Pickett - Baby Call On Me
TTITLE10=Harold Melvin and The Blue Notes - Satisfaction Guaranteed
TTITLE11=Ike and Tina Turner - It's Gonna Work Out Fine
TTITLE12=Percy Sledge - I've Been Loving You Too Long
TTITLE13=Gladys Knight and The Pips - Lovers Always Forgive
TTITLE14=Solomon Burke - Sidewalks, Fences And Walls
TTITLE15=Soul Survivors - Expressway To Your Heart
TTITLE16=King Curtis - Soul Twist
TTITLE17=James Brown - It's A Man's, Man's World
EXTD=actually the genre is Soul but I can't select that?
EXTT0=
EXTT1=
EXTT2=
EXTT3=
EXTT4=
EXTT5=
EXTT6=
EXTT7=
EXTT8=
EXTT9=
EXTT10=
EXTT11=
EXTT12=
EXTT13=
EXTT14=
EXTT15=
EXTT16=
EXTT17=
PLAYORDER=
